<svg id="Layer_1" data-name="Layer 1" xmlns="http://www.w3.org/2000/svg" viewBox="0 0 50 50"><defs><style>.cls-1{fill:#253b56;}</style></defs><title>ic_content</title><path class="cls-1" d="M45.86,5.49c.5-.11.72.19.5.65L45.19,8.52a2,2,0,0,0,.05,1.64l1.3,2.31c.25.45,0,.74-.46.68l-2.63-.38a2,2,0,0,0-1.54.55l-1.8,2c-.35.37-.7.26-.78-.23l-.47-2.61a1.93,1.93,0,0,0-1-1.3L35.45,10c-.46-.21-.47-.58,0-.82L37.78,8a2,2,0,0,0,.92-1.36L39,4c.06-.51.41-.63.77-.28l1.91,1.85A2,2,0,0,0,43.25,6Z"/><path class="cls-1" d="M10.2,19.86c-1.48,2.52-1.06,5.51.93,6.68s4.82.07,6.3-2.46,1.05-5.52-.95-6.69S11.68,17.33,10.2,19.86Z"/><path class="cls-1" d="M0,26.73A19.74,19.74,0,1,0,19.74,7,19.77,19.77,0,0,0,0,26.73ZM5.59,35a19.86,19.86,0,0,1,3-8.15A5.91,5.91,0,0,1,7.43,24a7.63,7.63,0,0,1,.25-3.21H4.49a16.47,16.47,0,0,1,6.76-8l.19,3.16A6.59,6.59,0,0,1,14.72,15a5.46,5.46,0,0,1,2.5.61c1.58-1.41,4.55-3,10.08-3.37a16.38,16.38,0,0,1,8.82,14.52,16.05,16.05,0,0,1-.5,3.94c-.75-2.25-3.8-8.16-15.38-10a8,8,0,0,1-1.12,4.38,7.78,7.78,0,0,1-4.87,3.73A26.64,26.64,0,0,0,26.43,41.67,16.3,16.3,0,0,1,5.59,35Z"/><path class="cls-1" d="M43.77,24.52l1.49-.16a1.12,1.12,0,0,1,.86.34l1,1.13c.19.21.39.16.44-.12l.3-1.46a1.13,1.13,0,0,1,.59-.71L49.79,23c.27-.1.28-.31,0-.45l-1.29-.74A1.12,1.12,0,0,1,48,21l-.12-1.48c0-.29-.22-.36-.43-.17l-1.1,1a1.15,1.15,0,0,1-.9.23L44,20.23c-.28-.06-.41.09-.29.36l.61,1.35a1.18,1.18,0,0,1,0,.92l-.78,1.27C43.38,24.38,43.49,24.56,43.77,24.52Z"/></svg>