<?xml version="1.0" encoding="utf-8"?>
<!-- Generator: Adobe Illustrator 16.0.1, SVG Export Plug-In . SVG Version: 6.00 Build 0)  -->
<!DOCTYPE svg PUBLIC "-//W3C//DTD SVG 1.1//EN" "http://www.w3.org/Graphics/SVG/1.1/DTD/svg11.dtd">
<svg version="1.1" id="Layer_1" xmlns="http://www.w3.org/2000/svg" xmlns:xlink="http://www.w3.org/1999/xlink" x="0px" y="0px"
	 width="24px" height="24px" viewBox="0 0 24 24" enable-background="new 0 0 24 24" xml:space="preserve">
<path fill="#7BB142" stroke="#7BB142" stroke-width="0.5598" stroke-miterlimit="10" d="M22.977,18.422
	c0,2.516-2.039,4.555-4.555,4.555H5.578c-2.516,0-4.555-2.039-4.555-4.555V5.577c0-2.516,2.039-4.554,4.555-4.554h12.844
	c2.516,0,4.555,2.039,4.555,4.554V18.422z"/>
<path fill="#FFFFFF" d="M9.646,20.204c-0.682,0-1.328-0.318-1.745-0.863l-3.348-4.393c-0.735-0.964-0.549-2.34,0.414-3.074
	c0.964-0.735,2.341-0.55,3.076,0.414l1.509,1.977l6.487-9.479c0.684-1,2.05-1.256,3.05-0.571c1.001,0.686,1.257,2.049,0.572,3.051
	L11.458,19.25c-0.398,0.581-1.05,0.935-1.754,0.954C9.685,20.204,9.665,20.204,9.646,20.204L9.646,20.204z"/>
</svg>
