<svg id="Layer_1" data-name="Layer 1" xmlns="http://www.w3.org/2000/svg" viewBox="0 0 50 50"><defs><style>.cls-1{fill:#233b56;}</style></defs><title>ic_schedulers</title><path class="cls-1" d="M41.94,8.44h-.33C25.22,12.14,10.81,25.22,4.9,31.22c-.14.7-.76,5.15,3.52,13.39a7.83,7.83,0,0,0,7.3-2.1,1.08,1.08,0,0,1,1.52,0,.81.81,0,0,1,.12.18l0-.05a8.35,8.35,0,0,0,5.4,2.16,9,9,0,0,0,5.61-2.32,39.26,39.26,0,0,1,6.1-14.37c1.59-2.37,3.1-4.39,4.43-6.18,3.93-5.26,6.3-8.44,5-12.45C43.75,8.79,43.07,8.44,41.94,8.44ZM12,32.25c-.11.66-.6,1.12-1.09,1A1.08,1.08,0,0,1,10.28,32c.11-.66.6-1.12,1.09-1A1.09,1.09,0,0,1,12,32.25Zm5.21-3.78c-.14.78-.73,1.34-1.31,1.24a1.3,1.3,0,0,1-.81-1.61c.13-.78.72-1.34,1.3-1.24A1.31,1.31,0,0,1,17.25,28.47Zm5.73-4c-.15.87-.8,1.49-1.45,1.38A1.46,1.46,0,0,1,20.62,24c.15-.87.81-1.49,1.45-1.37A1.43,1.43,0,0,1,23,24.45ZM38.2,16.31a1.53,1.53,0,0,1-.3,0,2.17,2.17,0,0,1,.22.95,2.13,2.13,0,1,1-4.26,0,2.17,2.17,0,0,1,.22-.95,1.36,1.36,0,0,1-.29,0,1.52,1.52,0,1,1,1.52-1.52,1.38,1.38,0,0,1-.08.45,2.13,2.13,0,0,1,1.52,0,1.69,1.69,0,0,1-.07-.45,1.52,1.52,0,1,1,1.52,1.52Z"/><path class="cls-1" d="M46.18,41.35c-1.57-1.73-4.63-2.5-8.18-2.07a15.08,15.08,0,0,0-6.76,2.47.2.2,0,0,0-.06.25.19.19,0,0,0,.24.1,10.06,10.06,0,0,1,5-.48,9,9,0,0,1,5.06,2.83c1,1,1.84,1.81,3.47,1.61h0a2.58,2.58,0,0,0,2.26-1.52C47.56,43.6,47.19,42.46,46.18,41.35Z"/><path class="cls-1" d="M31.66,39.55l.06,0a8.22,8.22,0,0,1,4.14-1.81,9.89,9.89,0,0,1,3.12,0,6.81,6.81,0,0,0,1.6.06,2,2,0,0,0,1.22-.61,1.18,1.18,0,0,0,.25-1.4,3.45,3.45,0,0,0-3.18-1.58c-3.15.25-4.28,1.57-6.27,3.88l-1.08,1.24a.16.16,0,0,0,0,.22A.16.16,0,0,0,31.66,39.55Z"/><path class="cls-1" d="M37.78,44.42a9.18,9.18,0,0,0-5.12-.93A12.51,12.51,0,0,0,26.35,46a12.48,12.48,0,0,1-3.36.5,9.58,9.58,0,0,1-5.11-1.37,1.67,1.67,0,0,0-.52-.21,1.55,1.55,0,0,0-1.78,0,9.43,9.43,0,0,1-5.41,1.57,9.58,9.58,0,0,1-5.11-1.37,1.54,1.54,0,0,0-2.15.48,1.55,1.55,0,0,0,.47,2.15,12.79,12.79,0,0,0,6.79,1.86A12.87,12.87,0,0,0,16.59,48,12.82,12.82,0,0,0,23,49.64a14.06,14.06,0,0,0,7.65-2.22,5.74,5.74,0,0,1,.79-.14,4.3,4.3,0,0,1,3.83,1.08c.91.88,1.69,1.63,2.82,1.52a3,3,0,0,0,1.05-.31,1.74,1.74,0,0,0,1-1.63A4.4,4.4,0,0,0,37.78,44.42Z"/><path class="cls-1" d="M6.79,26.58a1.39,1.39,0,0,0,.86-.29l.61-.48A94,94,0,0,1,28.6,11.55H16.88V9.49H33.09l1.07-.41a1,1,0,0,0,.21-.58,1,1,0,0,0-1-1H26.42l-2.55-7A.79.79,0,0,0,23.12,0H19a.79.79,0,0,0-.8.8V7.5H15.88a.93.93,0,0,0-.33.07l-.1,0a.64.64,0,0,0-.19.13.81.81,0,0,0-.16.16h0L8.83,12.31a1,1,0,0,0,.57,1.81,1,1,0,0,0,.58-.18l4.9-3.44v1.58l-7.4,5.68A1.19,1.19,0,0,0,8.2,19.9a1.21,1.21,0,0,0,.73-.24l8-6.12h1.3v.94L5.93,24.08a1.4,1.4,0,0,0-.24,2A1.38,1.38,0,0,0,6.79,26.58Z"/></svg>