<svg id="Layer_1" data-name="Layer 1" xmlns="http://www.w3.org/2000/svg" viewBox="0 0 50 50"><defs><style>.cls-1{fill:#233b56;}.cls-2{fill:#253b56;}</style></defs><title>ic_templates</title><path class="cls-1" d="M15.46,39.35h0Z"/><path class="cls-1" d="M39.17,6.34h-2.6A4.62,4.62,0,0,1,32,11H18a4.62,4.62,0,0,1-4.61-4.61h-2.6l-.37,0A3.61,3.61,0,0,0,7.24,9.93h0V46.42A3.59,3.59,0,0,0,10.83,50H39.17l.37,0a3.61,3.61,0,0,0,3.22-3.56h0V9.93A3.59,3.59,0,0,0,39.17,6.34Zm-4,19.43-10.74,11-.65.66h0l-1.16,1.17C21.4,39.79,17.2,41,15.46,41a2.49,2.49,0,0,1-1.8-.63c-.58-.58-1-1.57-.14-4.84a12,12,0,0,1,1.84-4.23l1.17-1.2h0l.63-.63L28.08,18.38A5.73,5.73,0,0,1,32,16.71a4.91,4.91,0,0,1,3.53,1.55C37.82,20.62,37.11,23.82,35.2,25.77Z"/><path class="cls-1" d="M31.55,2.55H28.78a4.11,4.11,0,0,0-7.56,0H18.45a3.39,3.39,0,0,0-3.39,3.39h0a3.39,3.39,0,0,0,3.39,3.39h13.1a3.39,3.39,0,0,0,3.39-3.39h0A3.39,3.39,0,0,0,31.55,2.55ZM25,6.72a2.49,2.49,0,1,1,2.49-2.49A2.5,2.5,0,0,1,25,6.72Z"/><path class="cls-2" d="M34.33,19.41a3.47,3.47,0,0,0-5.1.12l-10.92,11h0l5,5h0L34,24.63C35,23.69,36.28,21.38,34.33,19.41Z"/><path class="cls-2" d="M16.53,32.39c-.92,1-2.35,6.17-1.72,6.81s5.74-.84,6.7-1.78Z"/></svg>