<svg id="Layer_1" data-name="Layer 1" xmlns="http://www.w3.org/2000/svg" viewBox="0 0 50 50"><defs><style>.cls-1{fill:#233b56;}</style></defs><title>ic_templates</title><path class="cls-1" d="M31.52,9.47a1.81,1.81,0,0,0,1.82-1.82V3.31a1.82,1.82,0,0,0-3.64,0V7.65A1.82,1.82,0,0,0,31.52,9.47Z"/><path class="cls-1" d="M41.93,20.06a1.83,1.83,0,0,0,1.82,1.82H48.1a1.82,1.82,0,0,0,0-3.64H43.75A1.82,1.82,0,0,0,41.93,20.06Z"/><path class="cls-1" d="M23.74,10.23a1.83,1.83,0,0,0,1.58.91,1.79,1.79,0,0,0,.91-.25,1.8,1.8,0,0,0,.66-2.48L24.72,4.64a1.82,1.82,0,0,0-3.15,1.82Z"/><path class="cls-1" d="M40.54,14.85a1.82,1.82,0,0,0,1.58.91,1.84,1.84,0,0,0,.9-.24l3.77-2.18A1.82,1.82,0,0,0,45,10.19L41.2,12.36A1.84,1.84,0,0,0,40.54,14.85Z"/><path class="cls-1" d="M16.11,13.26l3.76,2.17a1.79,1.79,0,0,0,.91.25,1.82,1.82,0,0,0,.91-3.4l-3.76-2.17a1.82,1.82,0,1,0-1.82,3.15Z"/><path class="cls-1" d="M41.36,27.83,45.12,30a1.85,1.85,0,0,0,.91.24,1.82,1.82,0,0,0,.91-3.39l-3.77-2.18a1.82,1.82,0,1,0-1.81,3.15Z"/><path class="cls-1" d="M36.73,11a1.74,1.74,0,0,0,.9.24,1.82,1.82,0,0,0,1.58-.9l2.17-3.77a1.81,1.81,0,1,0-3.14-1.82L36.06,8.56A1.82,1.82,0,0,0,36.73,11Z"/><path class="cls-1" d="M41.39,32.32h-.66c-1.45-4.39-5.45-7.53-9.71-7.53A10,10,0,0,0,29,25,10.94,10.94,0,0,0,8.24,29,9.81,9.81,0,0,0,9.81,48.51H41.39a8.1,8.1,0,1,0,0-16.19Z"/><path class="cls-1" d="M31.52,11a9,9,0,0,0-8.43,5.85,13.35,13.35,0,0,1,7.27,5.35c.22,0,.44,0,.66,0a12.34,12.34,0,0,1,7.91,3,8.94,8.94,0,0,0,1.63-5.16A9,9,0,0,0,31.52,11Z"/></svg>